<svg id="Layer_1" data-name="Layer 1" xmlns="http://www.w3.org/2000/svg" viewBox="0 0 780.71 105.07"><defs><style>.cls-1,.cls-2{fill:#e5d128;}.cls-2{font-size:79.32px;font-family:DreamLife;}.cls-3{letter-spacing:-0.01em;}.cls-4{letter-spacing:-0.02em;}.cls-5{letter-spacing:-0.04em;}.cls-6{letter-spacing:-0.03em;}.cls-7{letter-spacing:-0.02em;}</style></defs><path class="cls-1" d="M104.85,75.65c-1.3,6.45-2.5,12.52-3.75,18.58s1.15,8.78,7,7c4.54-1.38,8.73-3.91,13.17-6,.88,8.18,8.59,12.72,12.76,19.56,1.71,2.81,3.54,5.33,1.72,8.74s-4.85,4.21-8.31,4.29c-10.9.26-20.74,3.34-28.5,11.32-2.35,2.42-3.79,5.71-6.08,8.2-2,2.13-4.56,5.2-6.84,5.17-3.7,0-4.7-4.35-5.1-7.5-1.09-8.56-2-17.18-2.27-25.81-.09-2.86,1.14-6.76,3.19-8.51,5.71-4.88,6.36-10.55,4.66-17.11-1-3.75-1.87-7.53-3.11-11.18-1.07-3.18-3.61-4.33-6.93-4.2-3.79.15-7.58,0-11.37,0-7.14,0-9.91-2-11.58-9A104.62,104.62,0,0,1,51.7,58.13c-.28-2.15.75-3.47,3.09-3.57,4.4-.18,8.81-.22,13.17-.74a13.55,13.55,0,0,0,6.24-2.34c3.59-2.68,7.36-4.37,11.85-3.95s9.21,1,13.81,1.56c6.68.73,9.36,5.2,10.9,11.09a30,30,0,0,0,3.42,7.42c4.13,7,6.69,14.41,4.53,22.56-1.22,4.65-7.72,8.46-12.44,7.83-2.85-.38-2.85-2.54-2.58-4.72.54-4.44,1.2-8.88,1.66-13.33A21.51,21.51,0,0,0,104.85,75.65Z" transform="translate(-51.66 -47.47)"/><text class="cls-2" transform="translate(119.61 77.83)">hund<tspan class="cls-3" x="180.28" y="0">l</tspan><tspan class="cls-4" x="205.98" y="0">i</tspan><tspan x="225.26" y="0">v g</tspan><tspan class="cls-5" x="339.15" y="0">ö</tspan><tspan class="cls-6" x="390.07" y="0">t</tspan><tspan x="422.6" y="0">ebo</tspan><tspan class="cls-7" x="580.51" y="0">r</tspan><tspan x="609.86" y="0">g</tspan></text></svg>