<svg id="Layer_1" data-name="Layer 1" xmlns="http://www.w3.org/2000/svg" viewBox="0 0 556 86.63"><defs><style>.cls-1{fill:#e5d128;}</style></defs><path class="cls-1" d="M103.59,83.09c-1.07,5.32-2.06,10.33-3.09,15.32s1,7.24,5.78,5.77c3.75-1.14,7.2-3.23,10.86-4.93.72,6.74,7.08,10.49,10.52,16.13,1.41,2.31,2.92,4.39,1.42,7.2s-4,3.48-6.86,3.54c-9,.22-17.1,2.76-23.49,9.34-1.94,2-3.13,4.7-5,6.75-1.62,1.76-3.76,4.3-5.65,4.27-3,0-3.87-3.59-4.2-6.18C83,133.23,82.23,126.13,82,119c-.08-2.37.94-5.58,2.63-7,4.71-4,5.24-8.7,3.84-14.11-.8-3.09-1.54-6.2-2.56-9.22-.89-2.62-3-3.57-5.72-3.46-3.12.12-6.25,0-9.37,0-5.89,0-8.17-1.65-9.55-7.39a88.8,88.8,0,0,1-1.5-9.21c-.23-1.77.62-2.85,2.55-2.93,3.62-.16,7.26-.19,10.85-.62a11.12,11.12,0,0,0,5.15-1.92c3-2.22,6.07-3.61,9.77-3.27s7.59.87,11.39,1.29c5.51.6,7.72,4.29,9,9.15a25.28,25.28,0,0,0,2.82,6.12c3.41,5.79,5.52,11.87,3.74,18.59-1,3.84-6.36,7-10.25,6.46-2.36-.31-2.36-2.1-2.14-3.89.45-3.66,1-7.32,1.37-11A17,17,0,0,0,103.59,83.09Z" transform="translate(-59.73 -59.85)"/><path class="cls-1" d="M192,97.34v25A1.67,1.67,0,0,1,190.4,124h-7.33a1.67,1.67,0,0,1-1.63-1.64V100.87a5.54,5.54,0,0,0-1.31-3.7,4.55,4.55,0,0,0-3.66-1.53,5.39,5.39,0,0,0-4,1.4,4.84,4.84,0,0,0-1.41,3.57v21.77a1.65,1.65,0,0,1-.45,1.15,1.54,1.54,0,0,1-1.18.49h-7.32a1.67,1.67,0,0,1-1.64-1.64V71.11a1.67,1.67,0,0,1,1.64-1.63h7.32a1.54,1.54,0,0,1,1.18.49,1.64,1.64,0,0,1,.45,1.14v17c1.62-2.05,4.36-3.08,8.24-3.08a12.42,12.42,0,0,1,8.93,3.63A11.62,11.62,0,0,1,192,97.34Z" transform="translate(-59.73 -59.85)"/><path class="cls-1" d="M225.91,86.35a1.64,1.64,0,0,1,1.21.49,1.68,1.68,0,0,1,.49,1.21v24.53q0,6.27-4.35,9.41t-11.32,3.14q-7,0-11.28-3.14t-4.31-9.41V88.05a1.64,1.64,0,0,1,.49-1.21,1.55,1.55,0,0,1,1.14-.49h7.59a1.64,1.64,0,0,1,1.21.49,1.68,1.68,0,0,1,.49,1.21v21.58a5.31,5.31,0,0,0,1.18,3.6,5.23,5.23,0,0,0,7.06,0,5.36,5.36,0,0,0,1.18-3.6V88.05a1.64,1.64,0,0,1,.49-1.21,1.53,1.53,0,0,1,1.14-.49Z" transform="translate(-59.73 -59.85)"/><path class="cls-1" d="M263,97.8v24.58a1.66,1.66,0,0,1-.46,1.15,1.54,1.54,0,0,1-1.18.49H254a1.57,1.57,0,0,1-1.15-.49,1.61,1.61,0,0,1-.49-1.15V101.07a5.12,5.12,0,0,0-1.27-3.57,5.71,5.71,0,0,0-7.46,0,5.21,5.21,0,0,0-1.21,3.6v21.31a1.67,1.67,0,0,1-1.63,1.64h-7.33a1.67,1.67,0,0,1-1.63-1.64V87.66a1.64,1.64,0,0,1,.49-1.21,1.56,1.56,0,0,1,1.14-.49h7.33a1.56,1.56,0,0,1,1.14.49,1.64,1.64,0,0,1,.49,1.21v1.76a5.08,5.08,0,0,1,.92-1,9.76,9.76,0,0,1,7.32-2.88A12.29,12.29,0,0,1,263,97.8Z" transform="translate(-59.73 -59.85)"/><path class="cls-1" d="M303.21,69.48a1.65,1.65,0,0,1,1.21.49,1.6,1.6,0,0,1,.49,1.14v51.27a1.61,1.61,0,0,1-.49,1.15,1.65,1.65,0,0,1-1.21.49H296a1.62,1.62,0,0,1-1.21-.49,1.57,1.57,0,0,1-.49-1.15v-.19a18.88,18.88,0,0,1-8.18,1.83A18.77,18.77,0,0,1,272.8,92a18,18,0,0,1,13.27-5.5,18.88,18.88,0,0,1,8.18,1.83V71.11a1.56,1.56,0,0,1,.49-1.14,1.62,1.62,0,0,1,1.21-.49Zm-23.65,42a8.62,8.62,0,1,0-2.51-6.08A8.3,8.3,0,0,0,279.56,111.43Z" transform="translate(-59.73 -59.85)"/><path class="cls-1" d="M325.31,113.43a1.55,1.55,0,0,1,1.14.49,1.53,1.53,0,0,1,.49,1.14v7.32a1.57,1.57,0,0,1-.49,1.15,1.55,1.55,0,0,1-1.14.49h-5.82a9.21,9.21,0,0,1-7.52-3.43,13.52,13.52,0,0,1-2.81-8.86V71.11a1.56,1.56,0,0,1,.49-1.14,1.55,1.55,0,0,1,1.14-.49h7.33a1.67,1.67,0,0,1,1.63,1.63v38.72a4.47,4.47,0,0,0,.72,2.48,2.45,2.45,0,0,0,2.22,1.12Z" transform="translate(-59.73 -59.85)"/><path class="cls-1" d="M332.18,72.49a6,6,0,0,1,4.44-1.83,6.15,6.15,0,0,1,4.48,1.83,6.22,6.22,0,0,1,0,8.89,6.15,6.15,0,0,1-4.48,1.83,6.29,6.29,0,0,1-4.44-10.72ZM340.29,124H333a1.55,1.55,0,0,1-1.14-.49,1.57,1.57,0,0,1-.49-1.15V88.05a1.64,1.64,0,0,1,.49-1.21,1.55,1.55,0,0,1,1.14-.49h7.33a1.5,1.5,0,0,1,1.17.49,1.69,1.69,0,0,1,.46,1.21v34.33a1.62,1.62,0,0,1-.46,1.15A1.5,1.5,0,0,1,340.29,124Z" transform="translate(-59.73 -59.85)"/><path class="cls-1" d="M380.11,88.51,371,119.38a7.53,7.53,0,0,1-3,4.28,8.31,8.31,0,0,1-4.71,1.54,8.13,8.13,0,0,1-4.68-1.54,7.81,7.81,0,0,1-3.07-4.28L346.3,88.51a1.52,1.52,0,0,1,.26-1.47,1.59,1.59,0,0,1,1.31-.69h8.24a1.51,1.51,0,0,1,1.57,1.31l5.56,21.65,5.49-21.65a1.56,1.56,0,0,1,1.64-1.31h8.17a1.65,1.65,0,0,1,1.57,2.16Z" transform="translate(-59.73 -59.85)"/><path class="cls-1" d="M424.12,89.1a15.85,15.85,0,0,1,10.34-3.4q7,0,11.41,3.17t4.41,9.38v24.13a1.67,1.67,0,0,1-1.63,1.64h-7.39a1.57,1.57,0,0,1-1.15-.49,1.61,1.61,0,0,1-.49-1.15V101.2a4.83,4.83,0,0,0-1.37-3.5,5.05,5.05,0,0,0-3.79-1.41,4.72,4.72,0,0,0-5,4.91v21.18a1.57,1.57,0,0,1-.49,1.15,1.64,1.64,0,0,1-1.21.49h-7.26a1.64,1.64,0,0,1-1.21-.49,1.57,1.57,0,0,1-.49-1.15V101.2a4.72,4.72,0,0,0-5-4.91,5.16,5.16,0,0,0-3.82,1.41,4.74,4.74,0,0,0-1.41,3.5v21.18a1.65,1.65,0,0,1-.45,1.15,1.54,1.54,0,0,1-1.18.49h-7.33a1.67,1.67,0,0,1-1.63-1.64V98.25q0-6.21,4.41-9.38t11.41-3.17A16.1,16.1,0,0,1,424.12,89.1Z" transform="translate(-59.73 -59.85)"/><path class="cls-1" d="M490.89,86.15a1.69,1.69,0,0,1,1.64,1.64v34.59a1.61,1.61,0,0,1-.49,1.15,1.57,1.57,0,0,1-1.15.49h-7.32a1.57,1.57,0,0,1-1.15-.49,1.61,1.61,0,0,1-.49-1.15v-2.61a13.78,13.78,0,0,1-10.07,3.92,15.8,15.8,0,0,1-12.52-5.43q-4.74-5.42-4.74-13.73t4.74-13.76a15.77,15.77,0,0,1,12.52-5.47,13.32,13.32,0,0,1,10.07,4.19v-1.7a1.69,1.69,0,0,1,1.64-1.64Zm-11.74,24.5a8.19,8.19,0,0,0,0-12.3,8.64,8.64,0,0,0-6-2.19,7.81,7.81,0,0,0-5.42,2.19,8.09,8.09,0,0,0-2.23,6.15,8.2,8.2,0,0,0,2.23,6.18,7.7,7.7,0,0,0,5.42,2.22A9,9,0,0,0,479.15,110.65Z" transform="translate(-59.73 -59.85)"/><path class="cls-1" d="M513,113.43a1.56,1.56,0,0,1,1.14.49,1.53,1.53,0,0,1,.49,1.14v7.32A1.67,1.67,0,0,1,513,124h-5.82a9.21,9.21,0,0,1-7.52-3.43,13.52,13.52,0,0,1-2.82-8.86V71.11a1.6,1.6,0,0,1,.49-1.14,1.57,1.57,0,0,1,1.15-.49h7.32A1.57,1.57,0,0,1,507,70a1.6,1.6,0,0,1,.49,1.14v38.72a4.47,4.47,0,0,0,.72,2.48,2.45,2.45,0,0,0,2.22,1.12Z" transform="translate(-59.73 -59.85)"/><path class="cls-1" d="M545.17,89.1a15.85,15.85,0,0,1,10.34-3.4q7,0,11.41,3.17t4.41,9.38v24.13A1.67,1.67,0,0,1,569.7,124h-7.39a1.67,1.67,0,0,1-1.64-1.64V101.2a4.83,4.83,0,0,0-1.37-3.5,5.05,5.05,0,0,0-3.79-1.41,4.72,4.72,0,0,0-5,4.91v21.18a1.57,1.57,0,0,1-.49,1.15,1.64,1.64,0,0,1-1.21.49h-7.26a1.64,1.64,0,0,1-1.21-.49,1.57,1.57,0,0,1-.49-1.15V101.2a4.72,4.72,0,0,0-5-4.91A5.14,5.14,0,0,0,531,97.7a4.74,4.74,0,0,0-1.41,3.5v21.18a1.62,1.62,0,0,1-.46,1.15,1.5,1.5,0,0,1-1.17.49h-7.33a1.67,1.67,0,0,1-1.63-1.64V98.25q0-6.21,4.41-9.38t11.41-3.17A16.1,16.1,0,0,1,545.17,89.1Z" transform="translate(-59.73 -59.85)"/><path class="cls-1" d="M581.53,90.93a20,20,0,0,1,28.35,28.35,20,20,0,1,1-28.35-28.35Zm10.69-9.39A5.07,5.07,0,0,1,583.56,78a5,5,0,0,1,1.47-3.6,5.06,5.06,0,0,1,7.19,0A5,5,0,0,1,593.7,78,4.81,4.81,0,0,1,592.22,81.54ZM588.89,112a9.39,9.39,0,0,0,6.83,2.81,9.62,9.62,0,1,0,0-19.23,9.39,9.39,0,0,0-6.83,2.81,9.57,9.57,0,0,0,0,13.61Zm17.69-30.45A4.93,4.93,0,0,1,603,83a5,5,0,0,1-5-5,5,5,0,0,1,1.47-3.6,4.81,4.81,0,0,1,3.56-1.5,5.12,5.12,0,0,1,5.1,5.1A4.79,4.79,0,0,1,606.58,81.54Z" transform="translate(-59.73 -59.85)"/></svg>