<?xml version="1.0" encoding="utf-8"?>
<!-- Generator: Adobe Illustrator 25.0.1, SVG Export Plug-In . SVG Version: 6.00 Build 0)  -->
<svg version="1.1" id="Layer_1" xmlns="http://www.w3.org/2000/svg" xmlns:xlink="http://www.w3.org/1999/xlink" x="0px" y="0px"
	 viewBox="0 0 1000 200" style="enable-background:new 0 0 1000 200;" xml:space="preserve">
<style type="text/css">
	.st0{fill:#E5D128;}
</style>
<g>
	<path class="st0" d="M94.59,79.94c-1.1,5.48-2.12,10.63-3.18,15.78c-1.06,5.14,0.98,7.45,5.95,5.94c3.85-1.17,7.41-3.32,11.18-5.07
		c0.75,6.94,7.29,10.8,10.84,16.61c1.45,2.38,3,4.52,1.46,7.42c-1.52,2.85-4.12,3.58-7.06,3.65c-9.26,0.22-17.61,2.83-24.19,9.61
		c-1.99,2.05-3.22,4.84-5.16,6.96c-1.66,1.81-3.87,4.42-5.81,4.4c-3.14-0.04-3.99-3.7-4.33-6.37c-0.92-7.27-1.7-14.59-1.93-21.92
		c-0.08-2.43,0.97-5.74,2.71-7.23c4.85-4.14,5.4-8.96,3.95-14.53c-0.82-3.18-1.59-6.39-2.64-9.49c-0.91-2.69-3.06-3.67-5.89-3.56
		c-3.21,0.13-6.43,0.03-9.65,0.03c-6.06,0.01-8.41-1.7-9.83-7.61c-0.75-3.1-1.14-6.3-1.55-9.48c-0.23-1.83,0.63-2.94,2.62-3.03
		c3.73-0.16,7.48-0.19,11.18-0.64c1.84-0.22,3.84-0.89,5.3-1.98c3.04-2.28,6.24-3.71,10.06-3.36c3.92,0.36,7.82,0.89,11.73,1.32
		c5.67,0.62,7.95,4.41,9.25,9.42c0.57,2.21,1.73,4.31,2.9,6.3c3.51,5.96,5.68,12.23,3.85,19.15c-1.04,3.95-6.56,7.19-10.56,6.65
		c-2.43-0.32-2.43-2.16-2.2-4.01c0.47-3.78,1.03-7.54,1.41-11.32C95.13,82.51,94.77,81.38,94.59,79.94z"/>
</g>
<g>
	<path class="st0" d="M185.67,94.61v25.79c0,0.45-0.17,0.84-0.51,1.18c-0.34,0.34-0.73,0.5-1.18,0.5h-7.54
		c-0.45,0-0.84-0.17-1.18-0.5c-0.34-0.34-0.5-0.73-0.5-1.18V98.25c0-1.48-0.45-2.75-1.35-3.81c-0.9-1.05-2.16-1.58-3.77-1.58
		c-1.75,0-3.11,0.48-4.07,1.45c-0.97,0.97-1.45,2.19-1.45,3.67v22.43c0,0.45-0.16,0.84-0.47,1.18c-0.31,0.34-0.72,0.5-1.21,0.5
		h-7.54c-0.45,0-0.84-0.17-1.18-0.5c-0.34-0.34-0.51-0.73-0.51-1.18v-52.8c0-0.45,0.17-0.84,0.51-1.18
		c0.34-0.34,0.73-0.51,1.18-0.51h7.54c0.49,0,0.9,0.17,1.21,0.51c0.31,0.34,0.47,0.73,0.47,1.18v17.51
		c1.66-2.11,4.49-3.17,8.49-3.17c3.55,0,6.61,1.25,9.19,3.74C184.38,88.18,185.67,91.16,185.67,94.61z"/>
	<path class="st0" d="M220.55,83.3c0.49,0,0.91,0.17,1.25,0.51c0.34,0.34,0.51,0.75,0.51,1.25v25.25c0,4.31-1.49,7.54-4.48,9.7
		c-2.99,2.15-6.87,3.23-11.65,3.23c-4.78,0-8.65-1.08-11.62-3.23c-2.96-2.16-4.44-5.39-4.44-9.7V85.05c0-0.49,0.17-0.91,0.51-1.25
		c0.34-0.34,0.73-0.51,1.18-0.51h7.81c0.49,0,0.91,0.17,1.25,0.51c0.34,0.34,0.51,0.75,0.51,1.25v22.22c0,1.53,0.4,2.76,1.21,3.7
		c0.81,0.94,2.02,1.41,3.64,1.41c1.62,0,2.83-0.47,3.64-1.41c0.81-0.94,1.21-2.18,1.21-3.7V85.05c0-0.49,0.17-0.91,0.51-1.25
		c0.34-0.34,0.73-0.51,1.18-0.51H220.55z"/>
	<path class="st0" d="M258.74,95.09v25.32c0,0.45-0.16,0.84-0.47,1.18c-0.31,0.34-0.72,0.5-1.21,0.5h-7.54
		c-0.45,0-0.84-0.17-1.18-0.5c-0.34-0.34-0.51-0.73-0.51-1.18V98.45c0-1.48-0.44-2.7-1.31-3.67c-0.88-0.97-2.14-1.45-3.81-1.45
		c-1.75,0-3.04,0.47-3.87,1.41c-0.83,0.94-1.25,2.18-1.25,3.7v21.96c0,0.45-0.17,0.84-0.51,1.18c-0.34,0.34-0.73,0.5-1.18,0.5h-7.54
		c-0.45,0-0.84-0.17-1.18-0.5c-0.34-0.34-0.51-0.73-0.51-1.18V84.65c0-0.49,0.17-0.91,0.51-1.25c0.34-0.34,0.73-0.51,1.18-0.51h7.54
		c0.45,0,0.84,0.17,1.18,0.51c0.34,0.34,0.51,0.75,0.51,1.25v1.82c0.27-0.4,0.58-0.76,0.94-1.08c1.93-1.98,4.44-2.96,7.54-2.96
		c3.5,0,6.49,1.24,8.96,3.7C257.5,88.6,258.74,91.58,258.74,95.09z"/>
	<path class="st0" d="M300.16,65.92c0.49,0,0.91,0.17,1.25,0.51s0.51,0.73,0.51,1.18v52.8c0,0.45-0.17,0.84-0.51,1.18
		c-0.34,0.34-0.75,0.5-1.25,0.5h-7.48c-0.49,0-0.91-0.17-1.25-0.5c-0.34-0.34-0.51-0.73-0.51-1.18v-0.2
		c-2.65,1.26-5.46,1.89-8.42,1.89c-5.34,0-9.9-1.89-13.67-5.66c-3.77-3.77-5.66-8.33-5.66-13.67c0-5.34,1.89-9.9,5.66-13.67
		c3.77-3.77,8.33-5.66,13.67-5.66c2.96,0,5.77,0.63,8.42,1.89V67.61c0-0.45,0.17-0.84,0.51-1.18c0.34-0.34,0.75-0.51,1.25-0.51
		H300.16z M275.81,109.13c1.73,1.73,3.82,2.59,6.26,2.59c2.45,0,4.53-0.86,6.26-2.59c1.73-1.73,2.59-3.82,2.59-6.26
		c0-2.45-0.87-4.53-2.59-6.26c-1.73-1.73-3.82-2.59-6.26-2.59c-2.45,0-4.54,0.86-6.26,2.59c-1.73,1.73-2.59,3.82-2.59,6.26
		C273.22,105.31,274.08,107.4,275.81,109.13z"/>
	<path class="st0" d="M322.92,111.18c0.45,0,0.84,0.17,1.18,0.51c0.34,0.34,0.51,0.73,0.51,1.18v7.54c0,0.45-0.17,0.84-0.51,1.18
		c-0.34,0.34-0.73,0.5-1.18,0.5h-5.99c-3.23,0-5.81-1.18-7.74-3.54c-1.93-2.36-2.9-5.4-2.9-9.13V67.61c0-0.45,0.17-0.84,0.51-1.18
		c0.34-0.34,0.73-0.51,1.18-0.51h7.54c0.45,0,0.84,0.17,1.18,0.51s0.51,0.73,0.51,1.18v39.87c0,0.94,0.25,1.8,0.74,2.56
		c0.49,0.76,1.26,1.14,2.29,1.14H322.92z"/>
	<path class="st0" d="M329.99,69.02c1.26-1.26,2.78-1.89,4.58-1.89c1.8,0,3.33,0.63,4.61,1.89c1.28,1.26,1.92,2.78,1.92,4.58
		c0,1.8-0.64,3.32-1.92,4.58c-1.28,1.26-2.82,1.89-4.61,1.89c-1.8,0-3.32-0.63-4.58-1.89c-1.26-1.26-1.89-2.78-1.89-4.58
		C328.1,71.81,328.73,70.28,329.99,69.02z M338.34,122.09h-7.54c-0.45,0-0.84-0.17-1.18-0.5c-0.34-0.34-0.51-0.73-0.51-1.18V85.05
		c0-0.49,0.17-0.91,0.51-1.25c0.34-0.34,0.73-0.51,1.18-0.51h7.54c0.49,0,0.9,0.17,1.21,0.51c0.31,0.34,0.47,0.75,0.47,1.25v35.36
		c0,0.45-0.16,0.84-0.47,1.18C339.24,121.92,338.83,122.09,338.34,122.09z"/>
	<path class="st0" d="M379.35,85.52l-9.43,31.79c-0.54,1.89-1.58,3.36-3.13,4.41c-1.55,1.05-3.17,1.58-4.85,1.58
		s-3.29-0.53-4.82-1.58c-1.53-1.05-2.58-2.53-3.17-4.41l-9.43-31.79c-0.18-0.54-0.09-1.04,0.27-1.52c0.36-0.47,0.81-0.71,1.35-0.71
		h8.49c0.85,0,1.39,0.45,1.62,1.35l5.72,22.29l5.66-22.29c0.22-0.9,0.78-1.35,1.68-1.35h8.42c0.58,0,1.04,0.24,1.38,0.71
		C379.46,84.48,379.53,84.98,379.35,85.52z"/>
	<path class="st0" d="M397.67,120.41v-7.54c0-0.45,0.17-0.84,0.51-1.18c0.34-0.34,0.73-0.51,1.18-0.51h11.18
		c1.17,0,1.75-0.49,1.75-1.48c0-0.49-0.35-0.98-1.04-1.45c-0.7-0.47-1.57-0.9-2.63-1.28c-1.05-0.38-2.19-0.91-3.4-1.58
		c-1.21-0.67-2.33-1.41-3.37-2.22c-1.03-0.81-1.9-1.93-2.59-3.37c-0.7-1.44-1.04-3.05-1.04-4.85c0-3.5,1.21-6.32,3.64-8.45
		c2.43-2.13,5.25-3.2,8.49-3.2h10.24c0.45,0,0.84,0.17,1.18,0.51c0.34,0.34,0.5,0.75,0.5,1.25v7.48c0,0.49-0.17,0.91-0.5,1.25
		c-0.34,0.34-0.73,0.51-1.18,0.51h-8.96c-1.17,0-1.75,0.49-1.75,1.48c0,0.49,0.37,0.97,1.11,1.41c0.74,0.45,1.65,0.87,2.73,1.25
		c1.08,0.38,2.25,0.92,3.5,1.62c1.26,0.7,2.42,1.45,3.5,2.26c1.08,0.81,1.99,1.93,2.73,3.37c0.74,1.44,1.11,3.05,1.11,4.85
		c0,3.5-1.22,6.31-3.67,8.42c-2.45,2.11-5.29,3.17-8.52,3.17h-13c-0.45,0-0.84-0.17-1.18-0.5
		C397.84,121.25,397.67,120.86,397.67,120.41z"/>
	<path class="st0" d="M450,82.63c0.49,0,0.9,0.17,1.21,0.51c0.31,0.34,0.47,0.75,0.47,1.25v7.54c0,0.45-0.16,0.84-0.47,1.18
		c-0.31,0.34-0.72,0.51-1.21,0.51h-5.39v13.87c0,0.94,0.25,1.8,0.74,2.56c0.49,0.76,1.26,1.14,2.29,1.14h2.69
		c0.45,0,0.84,0.17,1.18,0.51c0.34,0.34,0.5,0.73,0.5,1.18v7.54c0,0.45-0.17,0.84-0.5,1.18c-0.34,0.34-0.73,0.5-1.18,0.5h-5.99
		c-3.23,0-5.81-1.18-7.74-3.54c-1.93-2.36-2.9-5.4-2.9-9.13V93.6h-5.39c-0.45,0-0.84-0.17-1.18-0.51c-0.34-0.34-0.51-0.73-0.51-1.18
		v-7.54c0-0.49,0.17-0.91,0.51-1.25c0.34-0.34,0.73-0.51,1.18-0.51h5.39v-8.35c0-0.45,0.17-0.84,0.5-1.18
		c0.34-0.34,0.73-0.5,1.18-0.5h7.54c0.49,0,0.9,0.17,1.21,0.5c0.31,0.34,0.47,0.73,0.47,1.18v8.35H450z"/>
	<path class="st0" d="M460.3,88.01c4.04-4.04,8.91-6.06,14.61-6.06c5.7,0,10.56,2.02,14.58,6.06c4.02,4.04,6.03,8.91,6.03,14.61
		c0,5.7-2.01,10.56-6.03,14.58c-4.02,4.02-8.88,6.03-14.58,6.03c-5.7,0-10.57-2.01-14.61-6.03c-4.04-4.02-6.06-8.88-6.06-14.58
		C454.24,96.93,456.26,92.06,460.3,88.01z M467.88,109.7c1.95,1.93,4.3,2.9,7.04,2.9c2.74,0,5.07-0.97,7-2.9
		c1.93-1.93,2.9-4.26,2.9-7c0-2.74-0.97-5.07-2.9-7c-1.93-1.93-4.27-2.9-7-2.9c-2.74,0-5.08,0.97-7.04,2.9
		c-1.95,1.93-2.93,4.27-2.93,7C464.95,105.44,465.93,107.77,467.88,109.7z"/>
	<path class="st0" d="M513.61,95.69c-1.95,1.93-2.93,4.27-2.93,7c0,2.74,0.96,5.07,2.9,7c1.93,1.93,4.29,2.9,7.07,2.9
		c2.74,0,5.1-0.97,7.07-2.9c0.31-0.36,0.72-0.54,1.21-0.54c0.36,0,0.67,0.11,0.94,0.34l5.93,4.31c0.45,0.31,0.67,0.76,0.67,1.35
		c0,0.45-0.13,0.83-0.4,1.15c-1.93,2.2-4.23,3.91-6.9,5.12c-2.67,1.21-5.51,1.82-8.52,1.82c-5.7,0-10.57-2.01-14.61-6.03
		c-4.04-4.02-6.06-8.88-6.06-14.58c0-5.7,2.02-10.57,6.06-14.61c4.04-4.04,8.91-6.06,14.61-6.06c3.05,0,5.93,0.63,8.62,1.89
		c2.69,1.26,5.01,2.99,6.94,5.19c0.27,0.31,0.4,0.7,0.4,1.14c0,0.54-0.25,0.99-0.74,1.35l-5.93,4.38c-0.31,0.23-0.65,0.34-1.01,0.34
		c-0.49,0-0.92-0.18-1.28-0.54c-1.93-1.93-4.27-2.9-7-2.9C517.91,92.8,515.56,93.76,513.61,95.69z"/>
	<path class="st0" d="M569.34,100.68c1.48,0.45,2.77,1.4,3.87,2.86c1.1,1.46,1.65,3.09,1.65,4.88v11.99c0,0.45-0.17,0.84-0.5,1.18
		c-0.34,0.34-0.75,0.5-1.25,0.5h-8.96c-0.45,0-0.84-0.17-1.18-0.5c-0.34-0.34-0.5-0.73-0.5-1.18v-8.82c0-1.62-0.39-2.88-1.18-3.81
		c-0.79-0.92-1.81-1.38-3.06-1.38h-4.38c-0.23,0-0.38,0-0.47,0v14.01c0,0.45-0.17,0.84-0.51,1.18c-0.34,0.34-0.75,0.5-1.25,0.5
		h-8.96c-0.45,0-0.84-0.17-1.18-0.5c-0.34-0.34-0.51-0.73-0.51-1.18v-52.8c0-0.45,0.17-0.84,0.51-1.18
		c0.34-0.34,0.73-0.51,1.18-0.51h8.96c0.49,0,0.91,0.17,1.25,0.51c0.34,0.34,0.51,0.73,0.51,1.18v26.47h3.91
		c0.54,0,1.03-0.06,1.48-0.17c0.45-0.11,0.85-0.33,1.21-0.64c0.36-0.31,0.68-0.58,0.98-0.81c0.29-0.22,0.56-0.62,0.81-1.18
		c0.25-0.56,0.45-0.96,0.61-1.21c0.16-0.25,0.34-0.73,0.54-1.45c0.2-0.72,0.33-1.18,0.37-1.38c0.04-0.2,0.16-0.7,0.34-1.48
		c0.18-0.78,0.29-1.22,0.34-1.31c0.27-1.17,0.83-1.75,1.68-1.75h8.08c0.49,0,0.9,0.16,1.21,0.47c0.31,0.31,0.47,0.72,0.47,1.21
		c0,2.51-0.56,5.32-1.68,8.42C572.59,95.89,571.13,98.52,569.34,100.68z"/>
	<path class="st0" d="M612.3,94.61v25.79c0,0.45-0.17,0.84-0.51,1.18c-0.34,0.34-0.73,0.5-1.18,0.5h-7.54
		c-0.45,0-0.84-0.17-1.18-0.5c-0.34-0.34-0.5-0.73-0.5-1.18V98.25c0-1.48-0.45-2.75-1.35-3.81c-0.9-1.05-2.15-1.58-3.77-1.58
		c-1.75,0-3.11,0.48-4.07,1.45c-0.97,0.97-1.45,2.19-1.45,3.67v22.43c0,0.45-0.16,0.84-0.47,1.18c-0.31,0.34-0.72,0.5-1.21,0.5
		h-7.54c-0.45,0-0.84-0.17-1.18-0.5c-0.34-0.34-0.51-0.73-0.51-1.18v-52.8c0-0.45,0.17-0.84,0.51-1.18
		c0.34-0.34,0.73-0.51,1.18-0.51h7.54c0.49,0,0.9,0.17,1.21,0.51c0.31,0.34,0.47,0.73,0.47,1.18v17.51
		c1.66-2.11,4.49-3.17,8.49-3.17c3.55,0,6.61,1.25,9.19,3.74C611.01,88.18,612.3,91.16,612.3,94.61z"/>
	<path class="st0" d="M622.81,88.01c4.04-4.04,8.91-6.06,14.61-6.06c5.7,0,10.56,2.02,14.58,6.06c4.02,4.04,6.03,8.91,6.03,14.61
		c0,5.7-2.01,10.56-6.03,14.58c-4.02,4.02-8.88,6.03-14.58,6.03c-5.7,0-10.57-2.01-14.61-6.03c-4.04-4.02-6.06-8.88-6.06-14.58
		C616.75,96.93,618.77,92.06,622.81,88.01z M630.38,109.7c1.95,1.93,4.3,2.9,7.04,2.9c2.74,0,5.07-0.97,7-2.9
		c1.93-1.93,2.9-4.26,2.9-7c0-2.74-0.97-5.07-2.9-7c-1.93-1.93-4.27-2.9-7-2.9c-2.74,0-5.08,0.97-7.04,2.9
		c-1.95,1.93-2.93,4.27-2.93,7C627.46,105.44,628.43,107.77,630.38,109.7z"/>
	<path class="st0" d="M679.11,111.18c0.45,0,0.84,0.17,1.18,0.51c0.34,0.34,0.51,0.73,0.51,1.18v7.54c0,0.45-0.17,0.84-0.51,1.18
		c-0.34,0.34-0.73,0.5-1.18,0.5h-5.99c-3.23,0-5.82-1.18-7.75-3.54c-1.93-2.36-2.9-5.4-2.9-9.13V67.61c0-0.45,0.17-0.84,0.51-1.18
		c0.34-0.34,0.73-0.51,1.18-0.51h7.54c0.45,0,0.84,0.17,1.18,0.51c0.34,0.34,0.5,0.73,0.5,1.18v39.87c0,0.94,0.25,1.8,0.74,2.56
		c0.49,0.76,1.26,1.14,2.29,1.14H679.11z"/>
	<path class="st0" d="M712.24,86.13c2.87-2.33,6.42-3.5,10.64-3.5c4.8,0,8.72,1.09,11.75,3.27c3.03,2.18,4.55,5.4,4.55,9.66v24.85
		c0,0.45-0.17,0.84-0.5,1.18c-0.34,0.34-0.73,0.5-1.18,0.5h-7.61c-0.45,0-0.84-0.17-1.18-0.5c-0.34-0.34-0.51-0.73-0.51-1.18V98.59
		c0-1.44-0.47-2.64-1.41-3.6c-0.94-0.96-2.25-1.45-3.91-1.45c-1.62,0-2.89,0.48-3.81,1.45c-0.92,0.97-1.38,2.17-1.38,3.6v21.82
		c0,0.45-0.17,0.84-0.51,1.18c-0.34,0.34-0.75,0.5-1.25,0.5h-7.48c-0.49,0-0.91-0.17-1.25-0.5c-0.34-0.34-0.5-0.73-0.5-1.18V98.59
		c0-1.44-0.46-2.64-1.38-3.6c-0.92-0.96-2.19-1.45-3.8-1.45c-1.66,0-2.98,0.48-3.94,1.45c-0.97,0.97-1.45,2.17-1.45,3.6v21.82
		c0,0.45-0.16,0.84-0.47,1.18c-0.31,0.34-0.72,0.5-1.21,0.5h-7.54c-0.45,0-0.84-0.17-1.18-0.5c-0.34-0.34-0.51-0.73-0.51-1.18V95.56
		c0-4.27,1.52-7.49,4.55-9.66c3.03-2.18,6.95-3.27,11.75-3.27C705.76,82.63,709.32,83.79,712.24,86.13z"/>
</g>
</svg>
