<svg id="Layer_1" data-name="Layer 1" xmlns="http://www.w3.org/2000/svg" viewBox="0 0 803.29 124.68"><defs><style>.cls-1,.cls-2{fill:#e5d128;}.cls-2{font-size:94.12px;font-family:DreamLife;}.cls-3{letter-spacing:-0.01em;}.cls-4{letter-spacing:-0.02em;}</style></defs><path class="cls-1" d="M98.44,71.11c-1.54,7.65-3,14.86-4.44,22s1.36,10.42,8.32,8.3c5.38-1.64,10.36-4.64,15.62-7.09,1,9.71,10.19,15.1,15.14,23.22,2,3.32,4.2,6.32,2,10.36s-5.77,5-9.87,5.1c-12.94.31-24.61,4-33.82,13.43-2.78,2.87-4.49,6.77-7.21,9.73-2.33,2.53-5.41,6.17-8.12,6.14-4.39-.06-5.57-5.17-6-8.9-1.29-10.17-2.37-20.4-2.69-30.63-.11-3.4,1.35-8,3.78-10.1,6.78-5.79,7.55-12.52,5.53-20.31C75.53,88,74.46,83.48,73,79.13c-1.27-3.76-4.28-5.13-8.23-5-4.49.17-9,0-13.49,0-8.46,0-11.75-2.38-13.73-10.64a125.49,125.49,0,0,1-2.16-13.24c-.33-2.56.88-4.12,3.66-4.23,5.22-.23,10.46-.27,15.63-.89a16,16,0,0,0,7.41-2.77c4.25-3.19,8.72-5.19,14.06-4.69S87.06,39,92.53,39.59c7.92.87,11.1,6.17,12.93,13.16a35.63,35.63,0,0,0,4.05,8.81c4.91,8.33,7.94,17.09,5.39,26.76-1.46,5.52-9.17,10-14.77,9.3-3.39-.45-3.39-3-3.07-5.6.65-5.28,1.44-10.54,2-15.83C99.19,74.69,98.7,73.12,98.44,71.11Z" transform="translate(-35.32 -37.66)"/><text class="cls-2" transform="translate(141.93 92.35)">hund<tspan class="cls-3" x="213.93" y="0">l</tspan><tspan class="cls-4" x="244.42" y="0">i</tspan><tspan x="267.29" y="0">v malmö</tspan></text></svg>