<svg id="Layer_1" data-name="Layer 1" xmlns="http://www.w3.org/2000/svg" viewBox="0 0 651.49 86.63"><defs><style>.cls-1{fill:#e5d128;}</style></defs><path class="cls-1" d="M103.59,83.09c-1.07,5.32-2.06,10.33-3.09,15.32s1,7.24,5.78,5.77c3.75-1.14,7.2-3.23,10.86-4.93.72,6.74,7.08,10.49,10.52,16.13,1.41,2.31,2.92,4.39,1.42,7.2s-4,3.48-6.86,3.54c-9,.22-17.1,2.76-23.49,9.34-1.94,2-3.13,4.7-5,6.75-1.62,1.76-3.76,4.3-5.65,4.27-3,0-3.87-3.59-4.2-6.18C83,133.23,82.23,126.13,82,119c-.08-2.37.94-5.58,2.63-7,4.71-4,5.24-8.7,3.84-14.11-.8-3.09-1.54-6.2-2.56-9.22-.89-2.62-3-3.57-5.72-3.46-3.12.12-6.25,0-9.37,0-5.89,0-8.17-1.65-9.55-7.39a88.8,88.8,0,0,1-1.5-9.21c-.23-1.77.62-2.85,2.55-2.93,3.62-.16,7.26-.19,10.85-.62a11.12,11.12,0,0,0,5.15-1.92c3-2.22,6.07-3.61,9.77-3.27s7.59.87,11.39,1.29c5.51.6,7.72,4.29,9,9.15a25.28,25.28,0,0,0,2.82,6.12c3.41,5.79,5.52,11.87,3.74,18.59-1,3.84-6.36,7-10.25,6.46-2.36-.31-2.36-2.1-2.14-3.89.45-3.66,1-7.32,1.37-11A17,17,0,0,0,103.59,83.09Z" transform="translate(-59.73 -59.85)"/><path class="cls-1" d="M192,98.07v25.54a1.57,1.57,0,0,1-.5,1.17,1.6,1.6,0,0,1-1.16.5h-7.47a1.62,1.62,0,0,1-1.17-.5,1.6,1.6,0,0,1-.5-1.17V101.68a5.6,5.6,0,0,0-1.33-3.77,4.64,4.64,0,0,0-3.74-1.57,5.46,5.46,0,0,0-4,1.43,4.92,4.92,0,0,0-1.43,3.64v22.2a1.66,1.66,0,0,1-.47,1.17,1.58,1.58,0,0,1-1.2.5h-7.47a1.64,1.64,0,0,1-1.17-.5,1.6,1.6,0,0,1-.5-1.17V71.33a1.71,1.71,0,0,1,1.67-1.66H169a1.54,1.54,0,0,1,1.2.5,1.65,1.65,0,0,1,.47,1.16V88.67q2.46-3.14,8.4-3.13a12.65,12.65,0,0,1,9.1,3.7A11.83,11.83,0,0,1,192,98.07Z" transform="translate(-59.73 -59.85)"/><path class="cls-1" d="M226.51,86.87a1.69,1.69,0,0,1,1.23.5,1.71,1.71,0,0,1,.5,1.24v25q0,6.4-4.44,9.61t-11.53,3.2q-7.11,0-11.5-3.2t-4.41-9.61v-25a1.71,1.71,0,0,1,.5-1.24,1.64,1.64,0,0,1,1.17-.5h7.74a1.67,1.67,0,0,1,1.23.5,1.71,1.71,0,0,1,.5,1.24v22a5.44,5.44,0,0,0,1.2,3.67,5.33,5.33,0,0,0,7.2,0,5.44,5.44,0,0,0,1.2-3.67v-22a1.71,1.71,0,0,1,.5-1.24,1.64,1.64,0,0,1,1.17-.5Z" transform="translate(-59.73 -59.85)"/><path class="cls-1" d="M264.32,98.54v25.07a1.66,1.66,0,0,1-.47,1.17,1.58,1.58,0,0,1-1.2.5h-7.47a1.62,1.62,0,0,1-1.17-.5,1.6,1.6,0,0,1-.5-1.17V101.88a5.21,5.21,0,0,0-1.3-3.64,5.81,5.81,0,0,0-7.6,0,5.36,5.36,0,0,0-1.23,3.67v21.73a1.6,1.6,0,0,1-.5,1.17,1.64,1.64,0,0,1-1.17.5h-7.47a1.64,1.64,0,0,1-1.17-.5,1.6,1.6,0,0,1-.5-1.17V88.21a1.71,1.71,0,0,1,.5-1.24,1.64,1.64,0,0,1,1.17-.5h7.47a1.64,1.64,0,0,1,1.17.5,1.71,1.71,0,0,1,.5,1.24V90a5,5,0,0,1,.93-1.07A10,10,0,0,1,251.78,86a12.51,12.51,0,0,1,12.54,12.53Z" transform="translate(-59.73 -59.85)"/><path class="cls-1" d="M305.33,69.67a1.65,1.65,0,0,1,1.23.5,1.6,1.6,0,0,1,.5,1.16v52.28a1.6,1.6,0,0,1-.5,1.17,1.69,1.69,0,0,1-1.23.5h-7.41a1.67,1.67,0,0,1-1.23-.5,1.6,1.6,0,0,1-.5-1.17v-.2a19.12,19.12,0,0,1-8.34,1.87,19.14,19.14,0,0,1-13.53-32.67A18.4,18.4,0,0,1,287.85,87a19.26,19.26,0,0,1,8.34,1.86V71.33a1.6,1.6,0,0,1,.5-1.16,1.64,1.64,0,0,1,1.23-.5Zm-24.11,42.78a8.78,8.78,0,1,0-2.57-6.21A8.45,8.45,0,0,0,281.22,112.45Z" transform="translate(-59.73 -59.85)"/><path class="cls-1" d="M327.86,114.48a1.71,1.71,0,0,1,1.67,1.67v7.46a1.71,1.71,0,0,1-1.67,1.67h-5.93a9.39,9.39,0,0,1-7.67-3.5,13.78,13.78,0,0,1-2.87-9V71.33a1.71,1.71,0,0,1,1.67-1.66h7.47a1.71,1.71,0,0,1,1.67,1.66v39.48a4.59,4.59,0,0,0,.73,2.54,2.52,2.52,0,0,0,2.27,1.13Z" transform="translate(-59.73 -59.85)"/><path class="cls-1" d="M334.87,72.74a6.14,6.14,0,0,1,4.53-1.87A6.27,6.27,0,0,1,344,72.74a6.35,6.35,0,0,1,0,9.06,6.27,6.27,0,0,1-4.57,1.87,6.41,6.41,0,0,1-4.53-10.93Zm8.26,52.54h-7.46a1.71,1.71,0,0,1-1.67-1.67v-35a1.71,1.71,0,0,1,.5-1.24,1.6,1.6,0,0,1,1.17-.5h7.46a1.61,1.61,0,0,1,1.21.5,1.76,1.76,0,0,1,.46,1.24v35a1.65,1.65,0,0,1-.46,1.17A1.61,1.61,0,0,1,343.13,125.28Z" transform="translate(-59.73 -59.85)"/><path class="cls-1" d="M383.74,89.07l-9.33,31.48a7.69,7.69,0,0,1-3.1,4.37,8.46,8.46,0,0,1-4.8,1.56,8.28,8.28,0,0,1-4.77-1.56,8.09,8.09,0,0,1-3.14-4.37l-9.33-31.48a1.53,1.53,0,0,1,.27-1.5,1.62,1.62,0,0,1,1.33-.7h8.4a1.54,1.54,0,0,1,1.6,1.34l5.67,22.07,5.6-22.07a1.58,1.58,0,0,1,1.67-1.34h8.33a1.68,1.68,0,0,1,1.6,2.2Z" transform="translate(-59.73 -59.85)"/><path class="cls-1" d="M410.62,127.75a1.48,1.48,0,0,1,2.13.07,11.81,11.81,0,0,0,8.07,3,12.15,12.15,0,0,0,1.9-.17,10.06,10.06,0,0,0,2.33-.73,8.79,8.79,0,0,0,2.3-1.44,6.78,6.78,0,0,0,1.7-2.43,8.58,8.58,0,0,0,.7-3.57v-1.73a16,16,0,0,1-4.26,3.1,14,14,0,0,1-6,1.1,19.25,19.25,0,0,1-4.6-.54,15.8,15.8,0,0,1-9.5-6.73,21.49,21.49,0,0,1-3.5-12.27q0-8.46,4.84-14a16.06,16.06,0,0,1,12.76-5.56,13.59,13.59,0,0,1,10.27,4.26V88.61a1.71,1.71,0,0,1,.5-1.24,1.64,1.64,0,0,1,1.17-.5h7.47a1.64,1.64,0,0,1,1.17.5,1.71,1.71,0,0,1,.5,1.24v34.47a18.26,18.26,0,0,1-.14,2.14,25.06,25.06,0,0,1-.66,3.66,18.35,18.35,0,0,1-1.8,4.17,15.58,15.58,0,0,1-3.3,4.1,16.56,16.56,0,0,1-5.47,3,24.25,24.25,0,0,1-8,1.23,23,23,0,0,1-7.47-1.23,24,24,0,0,1-5.53-2.54,22.73,22.73,0,0,1-3.47-2.83,1.65,1.65,0,0,1-.5-1.3,1.56,1.56,0,0,1,.63-1.23ZM420.75,114a9.2,9.2,0,0,0,6.17-2.3,8.36,8.36,0,0,0,0-12.54,8.89,8.89,0,0,0-6.17-2.24,8,8,0,0,0-5.53,2.24,8.26,8.26,0,0,0-2.27,6.27,8.39,8.39,0,0,0,2.27,6.3A7.89,7.89,0,0,0,420.75,114Z" transform="translate(-59.73 -59.85)"/><path class="cls-1" d="M451,91.54A20.42,20.42,0,0,1,485.83,106,20.44,20.44,0,1,1,451,91.54ZM461.86,82A5.17,5.17,0,0,1,453,78.34a5.05,5.05,0,0,1,1.5-3.67,5.15,5.15,0,0,1,7.33,0,5.05,5.05,0,0,1,1.5,3.67A4.94,4.94,0,0,1,461.86,82Zm-3.4,31a9.58,9.58,0,0,0,7,2.87,9.81,9.81,0,0,0,0-19.61,9.58,9.58,0,0,0-7,2.87,9.74,9.74,0,0,0,0,13.87Zm18-31a5.07,5.07,0,0,1-3.67,1.5,5.12,5.12,0,0,1-5.13-5.13,5.05,5.05,0,0,1,1.5-3.67,4.9,4.9,0,0,1,3.63-1.53,5.22,5.22,0,0,1,5.2,5.2A4.9,4.9,0,0,1,476.5,82Z" transform="translate(-59.73 -59.85)"/><path class="cls-1" d="M510.91,86.21a1.54,1.54,0,0,1,1.2.5,1.73,1.73,0,0,1,.47,1.23v7.47a1.65,1.65,0,0,1-.47,1.16,1.54,1.54,0,0,1-1.2.5h-5.34v13.74a4.6,4.6,0,0,0,.74,2.54,2.5,2.5,0,0,0,2.26,1.13h2.67a1.64,1.64,0,0,1,1.17.5,1.6,1.6,0,0,1,.5,1.17v7.46a1.6,1.6,0,0,1-.5,1.17,1.64,1.64,0,0,1-1.17.5h-5.93a9.39,9.39,0,0,1-7.67-3.5,13.78,13.78,0,0,1-2.87-9V97.07h-5.33a1.57,1.57,0,0,1-1.17-.5,1.6,1.6,0,0,1-.5-1.16V87.94a1.67,1.67,0,0,1,.5-1.23,1.57,1.57,0,0,1,1.17-.5h5.33V77.94a1.71,1.71,0,0,1,1.67-1.67h7.47a1.61,1.61,0,0,1,1.2.5,1.65,1.65,0,0,1,.46,1.17v8.27Z" transform="translate(-59.73 -59.85)"/><path class="cls-1" d="M554.05,108.48a1.79,1.79,0,0,1,1.17.73,1.67,1.67,0,0,1,.3,1.33,20.16,20.16,0,0,1-7.17,11.37,20.43,20.43,0,0,1-27.24-30.37,19.71,19.71,0,0,1,14.47-6,20,20,0,0,1,13.34,4.93,21.52,21.52,0,0,1,4.46,5.47,1.5,1.5,0,0,1,.2,1.17,1.65,1.65,0,0,1-.66,1l-7.74,5.8-9.73,7.34a1.59,1.59,0,0,1-1.24.3,1.62,1.62,0,0,1-1.1-.64L530,106.81a1.77,1.77,0,0,1-.3-1.3,1.63,1.63,0,0,1,.63-1.1l9.54-7.14a9.93,9.93,0,0,0-4.94-1,9.4,9.4,0,0,0-6.26,2.84,9.85,9.85,0,0,0-.27,13.67,9.84,9.84,0,0,0,16.6-3.84,1.78,1.78,0,0,1,.7-.93,1.65,1.65,0,0,1,1.1-.27Z" transform="translate(-59.73 -59.85)"/><path class="cls-1" d="M559.92,71.33a1.6,1.6,0,0,1,.5-1.16,1.57,1.57,0,0,1,1.17-.5h7.47a1.71,1.71,0,0,1,1.66,1.66V88.87A19.26,19.26,0,0,1,579.06,87a19.12,19.12,0,0,1,13.57,32.67,18.57,18.57,0,0,1-13.57,5.6,19.12,19.12,0,0,1-8.34-1.87v.2a1.57,1.57,0,0,1-.5,1.17,1.6,1.6,0,0,1-1.16.5h-7.47a1.71,1.71,0,0,1-1.67-1.67ZM573.29,100a8.76,8.76,0,1,0,6.2-2.57A8.46,8.46,0,0,0,573.29,100Z" transform="translate(-59.73 -59.85)"/><path class="cls-1" d="M608.6,91.54A20.42,20.42,0,0,1,643.47,106,20.44,20.44,0,1,1,608.6,91.54ZM616.1,113a9.57,9.57,0,0,0,7,2.87,9.81,9.81,0,0,0,0-19.61,9.57,9.57,0,0,0-7,2.87,9.74,9.74,0,0,0,0,13.87Z" transform="translate(-59.73 -59.85)"/><path class="cls-1" d="M666.88,86.27c1.91,0,2.87.56,2.87,1.67v8.13c0,1-.56,1.54-1.67,1.67a10,10,0,0,0-4.1,1.4,10.33,10.33,0,0,0-2.9,2.57,13.51,13.51,0,0,0-1.74,3.17,17.15,17.15,0,0,0-.9,3.1,15.48,15.48,0,0,0-.23,2.5v13.13a1.6,1.6,0,0,1-.5,1.17,1.67,1.67,0,0,1-1.23.5h-6.94a1.6,1.6,0,0,1-1.16-.5,1.58,1.58,0,0,1-.51-1.17v-35a1.68,1.68,0,0,1,.51-1.24,1.6,1.6,0,0,1,1.16-.5h6.94a1.67,1.67,0,0,1,1.23.5,1.71,1.71,0,0,1,.5,1.24v3.6Q661.68,86.27,666.88,86.27Z" transform="translate(-59.73 -59.85)"/><path class="cls-1" d="M681.28,127.75a1.49,1.49,0,0,1,2.14.07,11.77,11.77,0,0,0,8.07,3,12.26,12.26,0,0,0,1.9-.17,10.36,10.36,0,0,0,2.33-.73,9,9,0,0,0,2.3-1.44,6.91,6.91,0,0,0,1.7-2.43,8.58,8.58,0,0,0,.7-3.57v-1.73a16,16,0,0,1-4.27,3.1,13.89,13.89,0,0,1-6,1.1,19.25,19.25,0,0,1-4.6-.54,15.8,15.8,0,0,1-9.5-6.73,21.41,21.41,0,0,1-3.5-12.27q0-8.46,4.83-14a16.08,16.08,0,0,1,12.77-5.56,13.59,13.59,0,0,1,10.27,4.26V88.61a1.71,1.71,0,0,1,.5-1.24,1.6,1.6,0,0,1,1.17-.5h7.47a1.6,1.6,0,0,1,1.16.5,1.67,1.67,0,0,1,.5,1.24v34.47a18.15,18.15,0,0,1-.13,2.14,25.08,25.08,0,0,1-.67,3.66,17.91,17.91,0,0,1-1.8,4.17,15.58,15.58,0,0,1-3.3,4.1,16.36,16.36,0,0,1-5.47,3,24.15,24.15,0,0,1-8,1.23,23,23,0,0,1-7.47-1.23,23.8,23.8,0,0,1-5.53-2.54,22.73,22.73,0,0,1-3.47-2.83,1.61,1.61,0,0,1-.5-1.3,1.56,1.56,0,0,1,.63-1.23ZM691.42,114a9.2,9.2,0,0,0,6.17-2.3,8.36,8.36,0,0,0,0-12.54,8.89,8.89,0,0,0-6.17-2.24,8,8,0,0,0-5.54,2.24,8.26,8.26,0,0,0-2.26,6.27,8.39,8.39,0,0,0,2.26,6.3A7.91,7.91,0,0,0,691.42,114Z" transform="translate(-59.73 -59.85)"/></svg>